<?xml version="1.0" encoding="UTF-8"?>
<svg width="232px" height="45px" viewBox="0 0 23 45" version="1.1" xmlns="http://www.w3.org/2000/svg" xmlns:xlink="http://www.w3.org/1999/xlink">
    <title>Branding / Logo / Side Lockup</title>
    <g id="Symbols" stroke="none" stroke-width="1" fill="none" fill-rule="evenodd">
        <g id="Desktop/Organism/Header/Menu/CSS-Main" transform="translate(-18.000000, -18.000000)">
            <g id="Group" transform="translate(18.000000, 17.000000)">
                <g id="Branding-/-Logo-/-Lockup" transform="translate(0.000000, 1.253333)">
                    <g id="Archi" fill="#FDE930">
                        <path d="M14.8664217,44.4563139 L49.0104658,44.4403163 L49.3533091,44.4398164 C49.8774518,44.4388165 50.3023174,44.0136302 50.3023174,43.4894587 L50.3023174,24.4865561 C50.3023174,17.1631534 47.0574342,10.2841841 41.399144,5.61288399 C37.0114496,1.99342631 31.4779434,-0.000274958802 25.8174026,-0.000274958802 L24.48529,-0.000274958802 C10.984615,-0.000274958802 0.000125034035,10.9843292 0.000125034035,24.4863061 L0.000125034035,39.4048208 L0.0106278929,39.3443298 C0.0496385118,39.7110249 0.211182485,40.0619723 0.484756952,40.3356813 L4.40207326,44.2513446 C4.52135573,44.3705767 4.68339984,44.4378167 4.85219578,44.4378167 L13.3272527,44.4413161 L14.8664217,44.4563139 Z M5.30381872,43.3492298 C5.1347727,43.3489798 4.97297866,43.2819898 4.85344612,43.1625077 L1.25496661,39.5657967 C0.901120288,39.2120996 1.15168849,38.6071903 1.65182463,38.6069403 L6.53990518,38.5994405 C7.04929384,38.5989415 7.53792685,38.8016611 7.89727466,39.1623571 L11.8263442,43.1032666 C11.9178691,43.1952528 11.8526013,43.3519793 11.7230661,43.3517297 L5.30381872,43.3492298 Z M13.7773752,24.4863061 L13.7768751,42.9997821 C13.7768751,43.1295127 13.6198324,43.1945029 13.5278073,43.1027667 L8.07032177,37.6470841 C7.95979168,37.5366007 7.89752473,37.3866232 7.89752473,37.2303966 L7.89802487,24.3850713 C7.89802487,18.6586793 11.0458817,13.368222 16.1210132,10.7113701 C29.1643136,3.88314317 42.2576277,13.2387414 42.2576277,25.5863913 L42.2576277,36.60699 C42.2576277,37.0321763 41.9122837,37.3773746 41.4866678,37.3773746 L37.3077803,37.3773746 C36.8821644,37.3773746 36.5370705,37.0321763 36.5370705,36.60674 L36.5370705,24.4863061 C36.5370705,21.6272345 35.4127645,18.927139 33.3959655,16.9111911 C31.770273,15.2861846 29.716714,14.2598384 27.4921084,13.9178896 C26.9417086,13.8321525 26.3795556,13.7711616 25.8174026,13.7711616 L24.48529,13.7711616 C18.5811829,13.7711616 13.7773752,18.5724422 13.7773752,24.4863061 L13.7773752,24.4863061 Z M35.2662246,24.4863061 L35.2659745,36.60674 C35.2659745,37.0321763 34.9208806,37.3771246 34.4952647,37.3771246 L15.6236278,37.3768746 C15.2182675,37.3768746 14.8891779,37.0484238 14.8891779,36.6432346 L14.8894279,24.4863061 C14.8894279,21.9451868 15.8796975,19.5625438 17.6764366,17.7785611 C18.4864071,16.9691824 19.4299139,16.3340276 20.447941,15.8723468 L20.447941,15.8720968 L20.4491913,15.8720968 C20.5832278,15.8111059 20.7187647,15.7526147 20.8555519,15.6978729 C20.8555519,15.6978729 24.3585055,13.928638 29.3001006,15.6978729 C30.3163772,16.0618184 31.0530777,16.5135007 31.5879733,17.0006777 C31.898808,17.2401418 32.1978894,17.4976032 32.4792159,17.7788111 C34.275955,19.5625438 35.2662246,21.9451868 35.2662246,24.4863061 L35.2662246,24.4863061 Z M16.300312,43.3519793 L15.0122114,43.3519793 C14.9316895,43.3519793 14.8664217,43.2867391 14.8664217,43.2062512 L14.8664217,41.3292824 L14.8664217,39.3333315 C14.8664217,38.9278922 15.1950111,38.5994405 15.6006215,38.5994405 L16.300312,38.5994405 L16.300312,38.6064404 L42.0710769,38.5994405 C42.5804655,38.5989415 43.0688485,38.8016611 43.4284464,39.1623571 L47.0636859,42.8085608 C47.2637403,43.0092807 47.1217017,43.3517294 46.8381245,43.3517294 L16.300312,43.3494797 L16.300312,43.3519793 Z M49.2130209,42.3351317 C49.2130209,42.6185892 48.8699275,42.760568 48.6691229,42.560348 L43.6555082,37.5503486 C43.5442279,37.4393653 43.4819609,37.2901376 43.4819609,37.1331611 C43.4804605,35.9560875 43.4799604,30.9228417 43.4799604,30.9210919 L43.4799604,25.5863913 L43.4799604,24.8410029 L43.4557038,24.8410029 C42.9418139,11.9701814 29.143558,2.4513577 15.4373271,9.68302414 C10.0085994,12.5475949 6.67569214,18.2494906 6.67569214,24.3858211 L6.67544208,36.7877129 C6.67544208,37.1131641 6.41137019,37.3768746 6.08603164,37.3768746 L1.67883198,37.3768746 C1.35324336,37.3768746 1.08942154,37.1131641 1.08942154,36.7877129 L1.08942154,24.4863061 C1.08942154,11.5839893 11.5897798,1.08881186 24.48529,1.08881186 L25.8174026,1.08881186 C31.4649399,1.08881186 36.6476006,3.1047598 40.7054552,6.45225822 C45.9008694,10.7408656 49.2130209,17.2291435 49.2130209,24.4865561 L49.2130209,42.3351317 Z"></path>
                    </g>
                </g>
            </g>
        </g>
    </g>
</svg>